<svg width="104" height="24" viewBox="0 0 104 24" fill="none" xmlns="http://www.w3.org/2000/svg">
<rect x="4.79395" width="8.08797" height="4.74725" rx="2.37363" fill="white" fill-opacity="0.5"/>
<path d="M42.0117 0.263672C43.1162 0.263755 44.0117 1.15915 44.0117 2.26367V13.499L48.3633 13.9404C48.7469 13.9793 48.8415 14.2368 48.5742 14.5146C48.3067 14.7926 47.7783 14.9862 47.3945 14.9473L44.0117 14.6035V21.9248C44.0115 23.0292 43.1161 23.9247 42.0117 23.9248H37.999C36.8947 23.9246 35.9992 23.0291 35.999 21.9248V13.792L12.8018 11.4404V22.0068C12.8018 23.1113 11.9062 23.9999 10.8018 24H6.71387C5.60932 24 4.7139 23.1045 4.71387 22V10.6211L0.362305 10.1807C-0.0210516 10.1416 -0.114998 9.88524 0.152344 9.60742C0.419752 9.32955 0.947295 9.13606 1.33105 9.1748L4.71387 9.5166V7.77051C4.71389 6.60261 5.70939 5.68009 6.87598 5.73535C8.16398 5.79645 9.80746 5.8423 11.168 5.77539C12.122 5.72845 12.8018 6.15414 12.8018 7.10938V10.3369L35.999 12.6875V2.26367C35.999 1.15921 36.8946 0.263851 37.999 0.263672H42.0117Z" fill="#E8E8E8"/>
<path d="M95.7295 20.4944V13.7744H97.8805V16.2656H101.457V13.7744H103.608V20.4944H101.457V17.72H97.8805V20.4944H95.7295Z" fill="#E8E8E8"/>
<path d="M90.8266 20.6389C89.8892 20.6389 89.0621 20.4965 88.3451 20.2117C87.6281 19.9269 87.0687 19.5237 86.667 19.0021C86.2653 18.4805 86.0645 17.8645 86.0645 17.1541C86.0645 16.6357 86.1811 16.1621 86.4143 15.7333C86.6519 15.3013 86.9845 14.9285 87.4121 14.6149C87.844 14.3013 88.3516 14.0597 88.9347 13.8901C89.5221 13.7173 90.1635 13.6309 90.8589 13.6309C91.6148 13.6309 92.2498 13.7013 92.7638 13.8421C93.2778 13.9829 93.7421 14.1829 94.1568 14.4421L93.0813 15.7525C92.8307 15.5605 92.5284 15.4181 92.1742 15.3253C91.82 15.2293 91.4291 15.1813 91.0015 15.1813C90.5782 15.1813 90.2002 15.2277 89.8677 15.3205C89.5394 15.4101 89.2586 15.5397 89.0254 15.7093C88.7964 15.8789 88.6215 16.0837 88.5006 16.3237C88.3796 16.5637 88.3192 16.8325 88.3192 17.1301C88.3192 17.5397 88.4271 17.8901 88.6431 18.1813C88.8634 18.4725 89.1766 18.6965 89.5826 18.8533C89.9886 19.0069 90.4745 19.0837 91.0404 19.0837C91.4464 19.0837 91.8481 19.0389 92.2455 18.9493C92.6472 18.8565 93.0273 18.7077 93.3858 18.5029L94.3706 19.8421C93.9516 20.0821 93.4506 20.2757 92.8675 20.4229C92.2843 20.5669 91.604 20.6389 90.8266 20.6389Z" fill="#E8E8E8"/>
<path d="M76.4883 20.4944V13.7744H78.6134L82.3453 17.8928V13.7744H84.4316V20.4944H82.3065L78.5681 16.3184V20.4944H76.4883Z" fill="#E8E8E8"/>
<path d="M70.4626 20.6384C69.6117 20.6384 68.8969 20.5136 68.3181 20.264C67.7436 20.0144 67.3095 19.672 67.0158 19.2368C66.7221 18.7984 66.5752 18.296 66.5752 17.7296V13.7744H68.7262V17.7872C68.7262 18.2448 68.8796 18.5856 69.1863 18.8096C69.4929 19.0304 69.9184 19.1408 70.4626 19.1408C71.0025 19.1408 71.4237 19.0304 71.726 18.8096C72.0327 18.5856 72.1861 18.2448 72.1861 17.7872V13.7744H74.3436V17.7296C74.3436 18.2928 74.1967 18.7936 73.903 19.232C73.6093 19.6672 73.173 20.0112 72.5942 20.264C72.0198 20.5136 71.3092 20.6384 70.4626 20.6384Z" fill="#E8E8E8"/>
<path d="M56.5508 20.4944V13.7744H58.7018V16.2656H62.2783V13.7744H64.4293V20.4944H62.2783V17.72H58.7018V20.4944H56.5508Z" fill="#E8E8E8"/>
<path d="M95.2422 10.72V4H96.5541V10.72H95.2422ZM95.9943 7.9744V7.264H99.6851C100.42 7.264 100.997 7.152 101.417 6.928C101.837 6.6976 102.046 6.384 102.046 5.9872H103.463C103.463 6.5888 103.119 7.072 102.431 7.4368C101.743 7.7952 100.828 7.9744 99.6851 7.9744H95.9943ZM102.046 5.9872C102.046 5.5904 101.837 5.28 101.417 5.056C100.997 4.8256 100.42 4.7104 99.6851 4.7104H95.9943V4H99.6851C100.828 4 101.743 4.1792 102.431 4.5376C103.119 4.896 103.463 5.3792 103.463 5.9872H102.046ZM102.116 10.72L99.0904 7.8016L100.28 7.4944L103.551 10.6432V10.72H102.116Z" fill="#E8E8E8"/>
<path d="M85.1758 10.72V4H86.4877V10.72H85.1758ZM85.858 10.72V10.0192H92.8896V10.72H85.858ZM85.858 7.6672V6.9664H92.5398V7.6672H85.858ZM85.858 4.7008V4H92.8896V4.7008H85.858Z" fill="#E8E8E8"/>
<path d="M80.9867 10.72L72.958 4.2016V4H74.2699L82.2986 10.5184V10.72H80.9867ZM72.958 10.72V4H74.2699V10.72H72.958ZM80.9867 10.72V4H82.2986V10.72H80.9867Z" fill="#E8E8E8"/>
<path d="M68.7689 10.72L60.7402 4.2016V4H62.0521L70.0808 10.5184V10.72H68.7689ZM60.7402 10.72V4H62.0521V10.72H60.7402ZM68.7689 10.72V4H70.0808V10.72H68.7689Z" fill="#E8E8E8"/>
<path d="M56.5508 10.72V4H57.8627V10.72H56.5508Z" fill="#E8E8E8"/>
</svg>
